# xmcd
#
# Track frame offsets:
#	150
#	16673
#	36285
#	54227
#	70219
#
# Disc length: 1135 seconds
#
# Revision: 1
# Processed by: cddbd v1.5.2PL0 Copyright (c) Steve Scherf et al.
# Submitted via: audiograbber 1.83.01
#
DISCID=35046d05
DTITLE=Lila McCann - The Singles (Promo)
DYEAR=2001
DGENRE=Country
TTITLE0=Come A Little Closer
TTITLE1=I Wanna Fall In Love
TTITLE2=Down Came A Blackbird
TTITLE3=With You
TTITLE4=Crush
EXTD=For promotional use only. Not for sale.
EXTT0=
EXTT1=
EXTT2=
EXTT3=
EXTT4=
PLAYORDER=
